<?xml version="1.0" encoding="UTF-8" standalone="no"?>
<!-- Created with Inkscape (http://www.inkscape.org/) -->

<svg
   xmlns:dc="http://purl.org/dc/elements/1.1/"
   xmlns:cc="http://creativecommons.org/ns#"
   xmlns:rdf="http://www.w3.org/1999/02/22-rdf-syntax-ns#"
   xmlns:svg="http://www.w3.org/2000/svg"
   xmlns="http://www.w3.org/2000/svg"
   xmlns:sodipodi="http://sodipodi.sourceforge.net/DTD/sodipodi-0.dtd"
   xmlns:inkscape="http://www.inkscape.org/namespaces/inkscape"
   width="384.42688mm"
   height="79.580505mm"
   viewBox="0 0 384.42688 79.580505"
   version="1.1"
   id="svg8"
   inkscape:version="0.92.2 (5c3e80d, 2017-08-06)"
   sodipodi:docname="devwire_logo_white.svg">
  <defs
     id="defs2" />
  <sodipodi:namedview
     id="base"
     pagecolor="#ffffff"
     bordercolor="#666666"
     borderopacity="1.0"
     inkscape:pageopacity="0.0"
     inkscape:pageshadow="2"
     inkscape:zoom="0.35"
     inkscape:cx="1041.9002"
     inkscape:cy="228.62264"
     inkscape:document-units="mm"
     inkscape:current-layer="layer1"
     showgrid="false"
     fit-margin-top="0"
     fit-margin-left="0"
     fit-margin-right="0"
     fit-margin-bottom="0"
     inkscape:window-width="1366"
     inkscape:window-height="705"
     inkscape:window-x="-8"
     inkscape:window-y="-8"
     inkscape:window-maximized="1" />
  <metadata
     id="metadata5">
    <rdf:RDF>
      <cc:Work
         rdf:about="">
        <dc:format>image/svg+xml</dc:format>
        <dc:type
           rdf:resource="http://purl.org/dc/dcmitype/StillImage" />
        <dc:title></dc:title>
      </cc:Work>
    </rdf:RDF>
  </metadata>
  <g
     inkscape:label="Layer 1"
     inkscape:groupmode="layer"
     id="layer1"
     transform="translate(415.52061,-129.74257)">
    <g
       aria-label="devwire"
       style="font-style:normal;font-variant:normal;font-weight:normal;font-stretch:normal;font-size:108.65391541px;line-height:1.25;font-family:nevis;-inkscape-font-specification:nevis;letter-spacing:0px;word-spacing:0px;fill:#ffffff;fill-opacity:1;stroke:none;stroke-width:2.71634793"
       id="text817">
      <path
         d="m -362.46694,129.79562 v 79.52745 h -14.85503 v -4.24429 q -5.94201,4.24429 -11.6718,4.24429 -12.20235,0 -19.36459,-7.95805 -7.16225,-7.95805 -7.16225,-18.56878 0,-10.61073 7.16225,-18.56878 7.16224,-7.95806 19.36459,-7.95806 7.95805,0.53054 11.6718,4.29735 v -30.82418 z m -14.85503,57.77545 v -8.59469 q -1.06107,-8.91302 -11.14127,-10.45158 -12.73288,1.00802 -14.32449,13.21037 0.53054,14.85502 14.32449,15.38556 10.0802,-1.59161 11.14127,-9.54966 z"
         style="font-style:normal;font-variant:normal;font-weight:normal;font-stretch:normal;font-family:nevis;-inkscape-font-specification:nevis;fill:#ffffff;fill-opacity:1;stroke-width:2.71634793"
         id="path4507" />
      <path
         d="m -352.17453,182.79624 q 0,-11.67181 7.42752,-19.09932 7.42751,-7.42752 19.09932,-7.42752 11.67181,0 18.56878,7.42752 6.89698,7.42751 6.89698,19.09932 v 5.30537 h -36.60703 q 0.53053,4.24429 3.71375,6.63171 3.18322,2.38741 7.42752,2.38741 7.42751,0 13.26342,-4.24429 l 8.48858,8.48858 q -5.8359,7.95805 -21.752,7.95805 -11.67181,0 -19.09932,-7.42751 -7.42752,-7.42751 -7.42752,-19.09932 z m 37.13757,-5.30537 q 0,-4.24429 -3.18322,-6.63171 -3.18322,-2.38741 -7.42751,-2.38741 -4.2443,0 -7.42752,2.38741 -3.18322,2.38742 -3.18322,6.63171 z"
         style="font-style:normal;font-variant:normal;font-weight:normal;font-stretch:normal;font-family:nevis;-inkscape-font-specification:nevis;fill:#ffffff;fill-opacity:1;stroke-width:2.71634793"
         id="path4509" />
      <path
         d="m -292.86052,156.2694 21.32757,53.05367 h 12.73288 l 21.27452,-53.05367 h -15.06724 l -12.73288,33.15855 -12.46761,-33.15855 z"
         style="font-style:normal;font-variant:normal;font-weight:normal;font-stretch:normal;font-family:nevis;-inkscape-font-specification:nevis;fill:#ffffff;fill-opacity:1;stroke-width:2.71634793"
         id="path4511" />
      <path
         d="m -188.34479,209.32307 h 13.26342 l 14.16533,-53.10672 h -13.95312 l -8.17026,31.88526 -7.58668,-31.88526 h -10.9821 l -7.95806,31.35472 -8.22331,-31.35472 h -13.95312 l 14.21838,53.10672 h 13.26342 l 7.95805,-26.57988 z"
         style="font-style:normal;font-variant:normal;font-weight:normal;font-stretch:normal;font-family:nevis;-inkscape-font-specification:nevis;fill:#ffffff;fill-opacity:1;stroke-width:2.71634793"
         id="path4513" />
      <path
         d="m -150.30532,209.32307 v -53.10672 h 14.85503 v 53.10672 z m -0.53054,-65.78655 q 0,3.18322 2.12215,5.30537 2.12215,2.12215 5.8359,2.12215 3.71376,0 5.83591,-2.12215 2.12214,-2.12215 2.12214,-5.30537 0,-3.18322 -2.12214,-5.30536 -2.12215,-2.1752 -5.94201,-2.1752 -3.60765,0 -5.7298,2.1752 -2.12215,2.12214 -2.12215,5.30536 z"
         style="font-style:normal;font-variant:normal;font-weight:normal;font-stretch:normal;font-family:nevis;-inkscape-font-specification:nevis;fill:#ffffff;fill-opacity:1;stroke-width:2.71634793"
         id="path4515" />
      <path
         d="m -108.81733,162.10531 q 5.67674,-5.83591 13.847005,-5.83591 2.599629,0 4.933991,0.42443 l -2.334362,14.64282 q -2.599629,-2.33436 -7.427513,-2.49353 -5.411471,0.37138 -9.019121,7.85195 v 32.628 h -14.85503 v -51.51511 l 14.85503,-1.59161 z"
         style="font-style:normal;font-variant:normal;font-weight:normal;font-stretch:normal;font-family:nevis;-inkscape-font-specification:nevis;fill:#ffffff;fill-opacity:1;stroke-width:2.71634793"
         id="path4517" />
      <path
         d="m -83.086312,182.79624 q 0,-11.67181 7.427514,-19.09932 7.427514,-7.42752 19.099321,-7.42752 11.671808,0 18.568785,7.42752 6.896977,7.42751 6.896977,19.09932 v 5.30537 h -36.607032 q 0.530536,4.24429 3.713757,6.63171 3.18322,2.38741 7.427513,2.38741 7.427514,0 13.263418,-4.24429 l 8.488587,8.48858 q -5.835904,7.95805 -21.752005,7.95805 -11.671807,0 -19.099321,-7.42751 -7.427514,-7.42751 -7.427514,-19.09932 z m 37.137569,-5.30537 q 0,-4.24429 -3.18322,-6.63171 -3.18322,-2.38741 -7.427514,-2.38741 -4.244293,0 -7.427513,2.38741 -3.183221,2.38742 -3.183221,6.63171 z"
         style="font-style:normal;font-variant:normal;font-weight:normal;font-stretch:normal;font-family:nevis;-inkscape-font-specification:nevis;fill:#ffffff;fill-opacity:1;stroke-width:2.71634793"
         id="path4519" />
    </g>
  </g>
</svg>
